<svg xmlns="http://www.w3.org/2000/svg" xmlns:xlink="http://www.w3.org/1999/xlink" width="336" zoomAndPan="magnify" viewBox="0 0 252 143.999998" height="192" preserveAspectRatio="xMidYMid meet" version="1.0"><defs><g/><clipPath id="id1"><path d="M 68.992188 56 L 179.992188 56 L 179.992188 90.464844 L 68.992188 90.464844 Z M 68.992188 56 " clip-rule="nonzero"/></clipPath></defs><path fill="#5e17eb" d="M 151.226562 71.964844 L 151.226562 71.972656 C 151.164062 72.316406 151.550781 72.5625 151.839844 72.363281 C 152.097656 72.183594 152.359375 72.003906 152.625 71.828125 C 153.378906 71.328125 154.144531 70.855469 154.921875 70.402344 C 155.308594 70.175781 155.699219 69.953125 156.09375 69.734375 C 156.484375 69.515625 156.878906 69.304688 157.277344 69.097656 C 158.074219 68.679688 158.878906 68.285156 159.691406 67.914062 C 160.507812 67.539062 161.332031 67.1875 162.164062 66.863281 C 163 66.542969 163.847656 66.25 164.707031 66.007812 C 165.136719 65.886719 165.570312 65.777344 166.007812 65.6875 C 166.25 65.636719 166.496094 65.59375 166.742188 65.554688 C 166.769531 65.550781 166.777344 65.59375 166.75 65.601562 C 166.507812 65.65625 166.269531 65.71875 166.03125 65.785156 C 165.605469 65.910156 165.183594 66.050781 164.769531 66.203125 C 163.9375 66.507812 163.125 66.863281 162.324219 67.242188 C 161.527344 67.625 160.742188 68.035156 159.96875 68.464844 C 159.195312 68.894531 158.429688 69.34375 157.679688 69.816406 C 157.304688 70.046875 156.933594 70.285156 156.5625 70.53125 C 156.195312 70.773438 155.828125 71.019531 155.464844 71.269531 C 154.742188 71.777344 154.027344 72.296875 153.335938 72.835938 C 153.058594 73.050781 152.785156 73.269531 152.515625 73.492188 C 152.261719 73.699219 152.359375 74.109375 152.679688 74.183594 C 152.710938 74.191406 152.746094 74.199219 152.777344 74.203125 C 160.53125 75.59375 164.9375 73.21875 168.261719 70.535156 C 171.402344 68 173.578125 65.191406 176.695312 65.015625 C 176.882812 65.003906 176.953125 64.765625 176.808594 64.652344 C 166.507812 56.601562 153.089844 61.472656 151.226562 71.964844 Z M 129.863281 61.46875 L 129.863281 61.480469 C 129.777344 61.953125 130.308594 62.289062 130.703125 62.015625 C 131.058594 61.765625 131.417969 61.523438 131.78125 61.285156 C 132.8125 60.597656 133.863281 59.949219 134.929688 59.324219 C 135.460938 59.015625 135.996094 58.707031 136.535156 58.410156 C 137.074219 58.113281 137.617188 57.820312 138.160156 57.535156 C 139.25 56.96875 140.355469 56.425781 141.472656 55.910156 C 142.589844 55.398438 143.71875 54.917969 144.863281 54.476562 C 146.007812 54.035156 147.167969 53.632812 148.347656 53.296875 C 148.9375 53.132812 149.53125 52.984375 150.132812 52.859375 C 150.464844 52.792969 150.800781 52.730469 151.136719 52.683594 C 151.175781 52.675781 151.1875 52.734375 151.148438 52.742188 C 150.816406 52.816406 150.492188 52.902344 150.164062 52.996094 C 149.582031 53.164062 149.003906 53.359375 148.433594 53.566406 C 147.292969 53.988281 146.179688 54.472656 145.082031 54.996094 C 143.988281 55.519531 142.910156 56.078125 141.847656 56.667969 C 140.789062 57.257812 139.742188 57.878906 138.714844 58.519531 C 138.199219 58.839844 137.6875 59.167969 137.183594 59.5 C 136.675781 59.835938 136.175781 60.175781 135.675781 60.519531 C 134.683594 61.210938 133.703125 61.921875 132.753906 62.664062 C 132.375 62.960938 132 63.261719 131.632812 63.566406 C 131.285156 63.851562 131.417969 64.410156 131.855469 64.511719 C 131.898438 64.523438 131.945312 64.53125 131.992188 64.542969 C 142.625 66.445312 148.664062 63.1875 153.222656 59.507812 C 157.527344 56.03125 160.511719 52.183594 164.785156 51.9375 C 165.039062 51.921875 165.140625 51.597656 164.9375 51.441406 C 150.816406 40.40625 132.417969 47.082031 129.863281 61.46875 Z M 147.253906 38.652344 C 147.527344 38.863281 147.394531 39.304688 147.046875 39.324219 C 141.261719 39.652344 137.226562 44.863281 131.40625 49.5625 C 125.238281 54.542969 117.066406 58.949219 102.679688 56.371094 C 102.621094 56.363281 102.558594 56.347656 102.496094 56.335938 C 101.90625 56.195312 101.726562 55.4375 102.195312 55.050781 C 102.695312 54.640625 103.203125 54.234375 103.714844 53.832031 C 105 52.832031 106.324219 51.863281 107.667969 50.929688 C 108.339844 50.464844 109.019531 50.007812 109.703125 49.554688 C 110.390625 49.105469 111.082031 48.660156 111.777344 48.226562 C 113.167969 47.359375 114.582031 46.523438 116.019531 45.722656 C 117.453125 44.925781 118.910156 44.167969 120.394531 43.460938 C 121.875 42.753906 123.382812 42.097656 124.925781 41.527344 C 125.699219 41.246094 126.476562 40.984375 127.269531 40.757812 C 127.707031 40.628906 128.152344 40.515625 128.597656 40.414062 C 128.652344 40.398438 128.636719 40.320312 128.582031 40.328125 C 128.128906 40.398438 127.675781 40.476562 127.222656 40.570312 C 126.410156 40.738281 125.609375 40.9375 124.8125 41.164062 C 123.214844 41.617188 121.644531 42.160156 120.097656 42.757812 C 118.546875 43.355469 117.019531 44.007812 115.507812 44.699219 C 113.996094 45.394531 112.503906 46.128906 111.03125 46.898438 C 110.292969 47.28125 109.558594 47.675781 108.828125 48.078125 C 108.101562 48.484375 107.375 48.894531 106.65625 49.316406 C 105.214844 50.160156 103.792969 51.039062 102.394531 51.96875 C 101.90625 52.292969 101.421875 52.621094 100.9375 52.957031 C 100.40625 53.328125 99.6875 52.871094 99.800781 52.230469 L 99.804688 52.214844 C 103.257812 32.753906 128.148438 23.71875 147.253906 38.652344 " fill-opacity="1" fill-rule="nonzero"/><g clip-path="url(#id1)"><path fill="#03989e" d="M 75.695312 66.648438 C 77.945312 66.25 80.199219 66.015625 82.453125 65.964844 C 86.953125 65.851562 91.40625 66.460938 95.734375 67.59375 L 96.542969 67.804688 C 96.816406 67.875 97.082031 67.957031 97.351562 68.035156 L 98.15625 68.269531 C 98.425781 68.351562 98.691406 68.441406 98.960938 68.527344 L 99.761719 68.78125 C 100.027344 68.867188 100.292969 68.960938 100.558594 69.050781 L 101.355469 69.324219 C 101.621094 69.417969 101.882812 69.519531 102.148438 69.613281 C 104.253906 70.398438 106.347656 71.25 108.417969 72.179688 C 108.933594 72.410156 109.449219 72.648438 109.96875 72.886719 C 110.484375 73.121094 111 73.355469 111.515625 73.601562 C 112.546875 74.085938 113.570312 74.585938 114.597656 75.097656 C 116.648438 76.105469 118.699219 77.140625 120.753906 78.199219 C 122.8125 79.238281 124.875 80.292969 126.960938 81.328125 C 129.054688 82.347656 131.15625 83.371094 133.300781 84.324219 C 135.449219 85.269531 137.621094 86.191406 139.851562 86.988281 C 140.96875 87.390625 142.089844 87.777344 143.222656 88.128906 C 144.359375 88.476562 145.507812 88.800781 146.667969 89.085938 C 147.25 89.222656 147.824219 89.375 148.414062 89.484375 L 149.292969 89.664062 C 149.582031 89.722656 149.878906 89.765625 150.175781 89.820312 L 151.058594 89.96875 L 151.949219 90.09375 C 152.246094 90.132812 152.542969 90.175781 152.839844 90.207031 L 153.734375 90.289062 C 154.035156 90.3125 154.332031 90.351562 154.632812 90.363281 L 155.527344 90.414062 C 156.125 90.453125 156.726562 90.449219 157.324219 90.453125 L 157.773438 90.457031 L 158.222656 90.4375 L 159.121094 90.40625 C 159.421875 90.398438 159.71875 90.371094 160.015625 90.347656 L 160.910156 90.269531 C 161.503906 90.207031 162.09375 90.113281 162.683594 90.039062 C 163.273438 89.9375 163.859375 89.828125 164.441406 89.714844 C 165.019531 89.574219 165.601562 89.441406 166.171875 89.296875 C 166.742188 89.125 167.3125 88.960938 167.875 88.78125 C 170.117188 88.035156 172.261719 87.046875 174.257812 85.84375 C 172.042969 86.5625 169.808594 87.128906 167.5625 87.484375 C 165.316406 87.839844 163.054688 87.992188 160.816406 87.921875 C 156.332031 87.800781 151.9375 86.871094 147.683594 85.46875 C 146.617188 85.121094 145.5625 84.738281 144.511719 84.332031 C 143.460938 83.929688 142.414062 83.507812 141.375 83.0625 C 139.300781 82.164062 137.238281 81.21875 135.191406 80.207031 C 133.144531 79.203125 131.097656 78.171875 129.054688 77.105469 L 122.886719 73.929688 C 120.8125 72.886719 118.730469 71.84375 116.613281 70.84375 C 115.550781 70.347656 114.484375 69.859375 113.410156 69.382812 C 112.875 69.144531 112.332031 68.914062 111.789062 68.679688 C 111.25 68.445312 110.703125 68.230469 110.15625 68.007812 C 107.964844 67.132812 105.738281 66.3125 103.460938 65.625 C 103.175781 65.539062 102.894531 65.449219 102.609375 65.367188 L 101.75 65.125 C 101.460938 65.046875 101.175781 64.964844 100.886719 64.886719 L 100.019531 64.671875 C 99.730469 64.605469 99.441406 64.53125 99.148438 64.464844 L 98.273438 64.277344 C 97.980469 64.214844 97.691406 64.148438 97.398438 64.09375 L 96.515625 63.929688 C 96.222656 63.878906 95.929688 63.816406 95.632812 63.773438 L 94.746094 63.644531 C 94.449219 63.605469 94.15625 63.554688 93.859375 63.523438 L 92.964844 63.425781 C 92.667969 63.394531 92.371094 63.355469 92.074219 63.335938 L 91.179688 63.269531 C 90.582031 63.21875 89.984375 63.207031 89.382812 63.191406 C 86.992188 63.128906 84.597656 63.277344 82.242188 63.636719 C 77.535156 64.359375 73.015625 65.96875 68.992188 68.308594 C 71.214844 67.625 73.449219 67.050781 75.695312 66.648438 Z M 74.722656 61.613281 C 78.75 59.273438 83.269531 57.667969 87.976562 56.941406 C 90.332031 56.582031 92.726562 56.433594 95.117188 56.496094 C 95.714844 56.515625 96.316406 56.523438 96.910156 56.574219 L 97.808594 56.640625 C 98.105469 56.660156 98.402344 56.703125 98.699219 56.730469 L 99.59375 56.828125 C 99.890625 56.859375 100.183594 56.910156 100.480469 56.949219 L 101.367188 57.078125 C 101.664062 57.125 101.957031 57.183594 102.25 57.234375 L 103.132812 57.398438 C 103.425781 57.453125 103.714844 57.519531 104.007812 57.582031 L 104.882812 57.769531 C 105.175781 57.835938 105.464844 57.910156 105.753906 57.976562 L 106.621094 58.195312 C 106.910156 58.269531 107.195312 58.351562 107.480469 58.433594 L 108.34375 58.671875 C 108.628906 58.753906 108.910156 58.847656 109.195312 58.929688 C 111.472656 59.617188 113.699219 60.4375 115.890625 61.3125 C 116.4375 61.535156 116.984375 61.75 117.523438 61.988281 C 118.066406 62.21875 118.609375 62.449219 119.144531 62.691406 C 120.21875 63.164062 121.285156 63.652344 122.347656 64.148438 C 124.464844 65.148438 126.546875 66.191406 128.621094 67.238281 L 134.789062 70.410156 C 136.832031 71.476562 138.878906 72.507812 140.925781 73.511719 C 142.972656 74.523438 145.035156 75.46875 147.109375 76.367188 C 148.148438 76.8125 149.195312 77.234375 150.246094 77.636719 C 151.296875 78.042969 152.351562 78.425781 153.417969 78.769531 C 157.671875 80.179688 162.066406 81.109375 166.550781 81.226562 C 168.789062 81.296875 171.046875 81.144531 173.296875 80.789062 C 175.542969 80.433594 177.777344 79.867188 179.992188 79.148438 C 177.996094 80.355469 175.851562 81.339844 173.609375 82.085938 C 173.046875 82.269531 172.476562 82.429688 171.90625 82.601562 C 171.332031 82.746094 170.753906 82.882812 170.175781 83.023438 C 169.59375 83.132812 169.007812 83.246094 168.417969 83.34375 C 167.828125 83.421875 167.238281 83.515625 166.644531 83.578125 L 165.75 83.652344 C 165.453125 83.675781 165.152344 83.703125 164.855469 83.710938 L 163.957031 83.742188 L 163.507812 83.761719 L 163.058594 83.757812 C 162.460938 83.753906 161.859375 83.757812 161.261719 83.71875 L 160.367188 83.667969 C 160.066406 83.65625 159.769531 83.617188 159.46875 83.59375 L 158.574219 83.511719 C 158.277344 83.480469 157.980469 83.4375 157.683594 83.398438 L 156.792969 83.273438 L 155.910156 83.125 C 155.613281 83.070312 155.316406 83.027344 155.023438 82.96875 L 154.148438 82.789062 C 153.558594 82.679688 152.980469 82.527344 152.402344 82.390625 C 151.242188 82.105469 150.097656 81.78125 148.957031 81.433594 C 147.820312 81.085938 146.699219 80.695312 145.585938 80.296875 C 143.355469 79.496094 141.183594 78.574219 139.035156 77.628906 C 136.890625 76.675781 134.785156 75.652344 132.695312 74.636719 C 130.609375 73.597656 128.546875 72.542969 126.488281 71.503906 C 124.433594 70.445312 122.382812 69.410156 120.332031 68.402344 C 119.304688 67.894531 118.28125 67.390625 117.25 66.910156 C 116.734375 66.660156 116.21875 66.425781 115.703125 66.191406 C 115.183594 65.953125 114.667969 65.71875 114.152344 65.484375 C 112.082031 64.554688 109.988281 63.707031 107.878906 62.921875 C 107.617188 62.824219 107.351562 62.722656 107.089844 62.632812 L 106.292969 62.359375 C 106.027344 62.269531 105.761719 62.171875 105.496094 62.085938 L 104.691406 61.832031 C 104.425781 61.746094 104.160156 61.65625 103.890625 61.578125 L 103.085938 61.339844 C 102.816406 61.265625 102.550781 61.179688 102.277344 61.109375 L 101.46875 60.898438 C 97.140625 59.765625 92.6875 59.15625 88.183594 59.269531 C 85.933594 59.320312 83.679688 59.558594 81.429688 59.957031 C 79.183594 60.355469 76.949219 60.929688 74.722656 61.613281 " fill-opacity="1" fill-rule="nonzero"/></g><g fill="#00ffff" fill-opacity="1"><g transform="translate(69.975844, 76.669095)"><g><path d="M 2.953125 -0.109375 C 2.441406 -0.078125 1.984375 -0.144531 1.578125 -0.3125 C 1.179688 -0.488281 0.859375 -0.753906 0.609375 -1.109375 C 0.367188 -1.472656 0.234375 -1.894531 0.203125 -2.375 L 0.0625 -4.453125 C 0.03125 -4.921875 0.113281 -5.34375 0.3125 -5.71875 C 0.507812 -6.09375 0.796875 -6.394531 1.171875 -6.625 C 1.546875 -6.851562 1.988281 -6.984375 2.5 -7.015625 C 3.007812 -7.054688 3.460938 -6.992188 3.859375 -6.828125 C 4.265625 -6.660156 4.585938 -6.410156 4.828125 -6.078125 C 5.066406 -5.742188 5.203125 -5.351562 5.234375 -4.90625 C 5.234375 -4.84375 5.175781 -4.804688 5.0625 -4.796875 L 3.828125 -4.609375 L 3.78125 -4.609375 C 3.6875 -4.609375 3.640625 -4.625 3.640625 -4.65625 L 3.625 -4.71875 C 3.601562 -5.019531 3.5 -5.253906 3.3125 -5.421875 C 3.132812 -5.585938 2.894531 -5.660156 2.59375 -5.640625 C 2.300781 -5.628906 2.066406 -5.523438 1.890625 -5.328125 C 1.722656 -5.128906 1.648438 -4.878906 1.671875 -4.578125 L 1.8125 -2.40625 C 1.832031 -2.101562 1.941406 -1.867188 2.140625 -1.703125 C 2.335938 -1.546875 2.582031 -1.472656 2.875 -1.484375 C 3.175781 -1.503906 3.40625 -1.609375 3.5625 -1.796875 C 3.71875 -1.992188 3.785156 -2.242188 3.765625 -2.546875 C 3.765625 -2.585938 3.78125 -2.613281 3.8125 -2.625 C 3.84375 -2.644531 3.882812 -2.65625 3.9375 -2.65625 L 5.203125 -2.671875 C 5.316406 -2.660156 5.375 -2.644531 5.375 -2.625 L 5.390625 -2.578125 C 5.421875 -2.117188 5.335938 -1.710938 5.140625 -1.359375 C 4.941406 -1.003906 4.65625 -0.71875 4.28125 -0.5 C 3.90625 -0.28125 3.460938 -0.148438 2.953125 -0.109375 Z M 2.953125 -0.109375 "/></g></g></g><g fill="#00ffff" fill-opacity="1"><g transform="translate(75.598645, 76.297262)"><g><path d="M 0.640625 0 C 0.585938 0 0.546875 -0.015625 0.515625 -0.046875 C 0.484375 -0.078125 0.46875 -0.117188 0.46875 -0.171875 L 0.484375 -6.578125 C 0.484375 -6.628906 0.5 -6.671875 0.53125 -6.703125 C 0.5625 -6.742188 0.601562 -6.765625 0.65625 -6.765625 L 1.921875 -6.765625 C 1.972656 -6.765625 2.015625 -6.742188 2.046875 -6.703125 C 2.078125 -6.671875 2.09375 -6.628906 2.09375 -6.578125 L 2.078125 -1.4375 C 2.078125 -1.394531 2.097656 -1.375 2.140625 -1.375 L 5.140625 -1.359375 C 5.191406 -1.359375 5.234375 -1.34375 5.265625 -1.3125 C 5.304688 -1.28125 5.328125 -1.238281 5.328125 -1.1875 L 5.328125 -0.15625 C 5.328125 -0.101562 5.304688 -0.0625 5.265625 -0.03125 C 5.234375 0 5.191406 0.015625 5.140625 0.015625 Z M 0.640625 0 "/></g></g></g><g fill="#00ffff" fill-opacity="1"><g transform="translate(80.955542, 76.340928)"><g><path d="M 0.640625 0.03125 C 0.585938 0.03125 0.546875 0.015625 0.515625 -0.015625 C 0.484375 -0.046875 0.472656 -0.0859375 0.484375 -0.140625 L 0.796875 -6.53125 C 0.796875 -6.582031 0.8125 -6.625 0.84375 -6.65625 C 0.882812 -6.695312 0.929688 -6.71875 0.984375 -6.71875 L 2.25 -6.65625 C 2.300781 -6.65625 2.335938 -6.632812 2.359375 -6.59375 C 2.390625 -6.550781 2.40625 -6.503906 2.40625 -6.453125 L 2.09375 -0.0625 C 2.082031 -0.0078125 2.0625 0.0234375 2.03125 0.046875 C 2 0.078125 1.957031 0.09375 1.90625 0.09375 Z M 0.640625 0.03125 "/></g></g></g><g fill="#00ffff" fill-opacity="1"><g transform="translate(83.413788, 76.467452)"><g/></g></g><g fill="#00ffff" fill-opacity="1"><g transform="translate(85.182452, 76.559786)"><g><path d="M 5.90625 -4.875 C 5.90625 -4.820312 5.882812 -4.78125 5.84375 -4.75 C 5.8125 -4.726562 5.769531 -4.71875 5.71875 -4.71875 L 2.78125 -5.078125 C 2.738281 -5.085938 2.710938 -5.070312 2.703125 -5.03125 L 2.5625 -3.890625 C 2.5625 -3.847656 2.582031 -3.820312 2.625 -3.8125 L 4.46875 -3.59375 C 4.519531 -3.582031 4.5625 -3.554688 4.59375 -3.515625 C 4.625 -3.472656 4.640625 -3.429688 4.640625 -3.390625 L 4.515625 -2.390625 C 4.503906 -2.335938 4.476562 -2.296875 4.4375 -2.265625 C 4.394531 -2.242188 4.347656 -2.238281 4.296875 -2.25 L 2.453125 -2.46875 C 2.410156 -2.476562 2.390625 -2.457031 2.390625 -2.40625 L 2.234375 -1.171875 C 2.234375 -1.128906 2.253906 -1.101562 2.296875 -1.09375 L 5.234375 -0.734375 C 5.285156 -0.734375 5.320312 -0.710938 5.34375 -0.671875 C 5.375 -0.640625 5.382812 -0.597656 5.375 -0.546875 L 5.25 0.46875 C 5.25 0.519531 5.226562 0.554688 5.1875 0.578125 C 5.15625 0.609375 5.113281 0.625 5.0625 0.625 L 0.640625 0.078125 C 0.585938 0.0664062 0.546875 0.046875 0.515625 0.015625 C 0.492188 -0.015625 0.484375 -0.0546875 0.484375 -0.109375 L 1.265625 -6.46875 C 1.273438 -6.519531 1.296875 -6.5625 1.328125 -6.59375 C 1.367188 -6.632812 1.414062 -6.648438 1.46875 -6.640625 L 5.890625 -6.09375 C 5.941406 -6.09375 5.976562 -6.070312 6 -6.03125 C 6.03125 -5.988281 6.039062 -5.941406 6.03125 -5.890625 Z M 5.90625 -4.875 "/></g></g></g><g fill="#00ffff" fill-opacity="1"><g transform="translate(90.462942, 77.183472)"><g><path d="M 0.640625 0.125 C 0.585938 0.113281 0.546875 0.0859375 0.515625 0.046875 C 0.492188 0.015625 0.488281 -0.0234375 0.5 -0.078125 L 1.71875 -6.359375 C 1.726562 -6.410156 1.753906 -6.453125 1.796875 -6.484375 C 1.835938 -6.515625 1.882812 -6.523438 1.9375 -6.515625 L 3.109375 -6.28125 C 3.203125 -6.269531 3.257812 -6.21875 3.28125 -6.125 L 4.671875 -2.1875 C 4.679688 -2.164062 4.695312 -2.15625 4.71875 -2.15625 C 4.738281 -2.15625 4.753906 -2.171875 4.765625 -2.203125 L 5.40625 -5.640625 C 5.414062 -5.691406 5.441406 -5.734375 5.484375 -5.765625 C 5.523438 -5.796875 5.570312 -5.804688 5.625 -5.796875 L 6.84375 -5.5625 C 6.882812 -5.550781 6.914062 -5.523438 6.9375 -5.484375 C 6.96875 -5.441406 6.976562 -5.394531 6.96875 -5.34375 L 5.75 0.9375 C 5.738281 0.988281 5.710938 1.023438 5.671875 1.046875 C 5.628906 1.078125 5.585938 1.085938 5.546875 1.078125 L 4.390625 0.859375 C 4.296875 0.835938 4.234375 0.785156 4.203125 0.703125 L 2.8125 -3.28125 C 2.800781 -3.3125 2.785156 -3.328125 2.765625 -3.328125 C 2.742188 -3.328125 2.734375 -3.3125 2.734375 -3.28125 L 2.0625 0.21875 C 2.050781 0.269531 2.023438 0.304688 1.984375 0.328125 C 1.953125 0.359375 1.910156 0.367188 1.859375 0.359375 Z M 0.640625 0.125 "/></g></g></g><g fill="#00ffff" fill-opacity="1"><g transform="translate(96.398534, 78.340731)"><g><path d="M 6.875 -5.15625 C 6.925781 -5.132812 6.960938 -5.101562 6.984375 -5.0625 C 7.003906 -5.019531 7.007812 -4.972656 7 -4.921875 L 6.734375 -3.9375 C 6.710938 -3.882812 6.679688 -3.84375 6.640625 -3.8125 C 6.609375 -3.789062 6.566406 -3.789062 6.515625 -3.8125 L 4.96875 -4.21875 C 4.925781 -4.238281 4.898438 -4.226562 4.890625 -4.1875 L 3.546875 0.765625 C 3.535156 0.816406 3.507812 0.851562 3.46875 0.875 C 3.425781 0.90625 3.378906 0.914062 3.328125 0.90625 L 2.109375 0.5625 C 2.054688 0.550781 2.019531 0.523438 2 0.484375 C 1.988281 0.453125 1.988281 0.410156 2 0.359375 L 3.34375 -4.59375 C 3.351562 -4.632812 3.335938 -4.660156 3.296875 -4.671875 L 1.78125 -5.078125 C 1.726562 -5.097656 1.691406 -5.125 1.671875 -5.15625 C 1.648438 -5.195312 1.648438 -5.242188 1.671875 -5.296875 L 1.9375 -6.28125 C 1.945312 -6.332031 1.96875 -6.375 2 -6.40625 C 2.039062 -6.4375 2.085938 -6.441406 2.140625 -6.421875 Z M 6.875 -5.15625 "/></g></g></g><g fill="#00ffff" fill-opacity="1"><g transform="translate(101.663849, 79.752597)"><g><path d="M 2.703125 1.015625 C 2.210938 0.847656 1.8125 0.617188 1.5 0.328125 C 1.195312 0.046875 0.992188 -0.273438 0.890625 -0.640625 C 0.796875 -1.015625 0.816406 -1.398438 0.953125 -1.796875 L 1 -1.921875 C 1.007812 -1.960938 1.035156 -1.992188 1.078125 -2.015625 C 1.117188 -2.046875 1.160156 -2.050781 1.203125 -2.03125 L 2.359375 -1.640625 C 2.410156 -1.617188 2.445312 -1.59375 2.46875 -1.5625 C 2.5 -1.53125 2.507812 -1.5 2.5 -1.46875 L 2.453125 -1.359375 C 2.390625 -1.171875 2.429688 -0.960938 2.578125 -0.734375 C 2.722656 -0.515625 2.953125 -0.347656 3.265625 -0.234375 C 3.523438 -0.148438 3.738281 -0.140625 3.90625 -0.203125 C 4.082031 -0.273438 4.195312 -0.390625 4.25 -0.546875 C 4.300781 -0.710938 4.265625 -0.867188 4.140625 -1.015625 C 4.023438 -1.160156 3.796875 -1.363281 3.453125 -1.625 L 3.296875 -1.75 C 2.941406 -2.007812 2.644531 -2.265625 2.40625 -2.515625 C 2.175781 -2.765625 2 -3.054688 1.875 -3.390625 C 1.757812 -3.722656 1.769531 -4.085938 1.90625 -4.484375 C 2.039062 -4.859375 2.253906 -5.15625 2.546875 -5.375 C 2.847656 -5.59375 3.195312 -5.71875 3.59375 -5.75 C 4 -5.78125 4.421875 -5.71875 4.859375 -5.5625 C 5.335938 -5.394531 5.734375 -5.160156 6.046875 -4.859375 C 6.359375 -4.566406 6.566406 -4.226562 6.671875 -3.84375 C 6.773438 -3.457031 6.753906 -3.066406 6.609375 -2.671875 L 6.59375 -2.59375 C 6.570312 -2.539062 6.539062 -2.503906 6.5 -2.484375 C 6.46875 -2.472656 6.425781 -2.472656 6.375 -2.484375 L 5.203125 -2.890625 C 5.148438 -2.910156 5.113281 -2.929688 5.09375 -2.953125 C 5.070312 -2.972656 5.066406 -3 5.078125 -3.03125 L 5.109375 -3.125 C 5.179688 -3.332031 5.148438 -3.550781 5.015625 -3.78125 C 4.890625 -4.007812 4.671875 -4.175781 4.359375 -4.28125 C 4.117188 -4.363281 3.910156 -4.378906 3.734375 -4.328125 C 3.554688 -4.273438 3.441406 -4.160156 3.390625 -3.984375 C 3.335938 -3.847656 3.34375 -3.722656 3.40625 -3.609375 C 3.46875 -3.492188 3.570312 -3.367188 3.71875 -3.234375 C 3.863281 -3.097656 4.101562 -2.898438 4.4375 -2.640625 C 4.820312 -2.347656 5.109375 -2.109375 5.296875 -1.921875 C 5.492188 -1.734375 5.65625 -1.476562 5.78125 -1.15625 C 5.914062 -0.84375 5.914062 -0.484375 5.78125 -0.078125 C 5.644531 0.304688 5.425781 0.609375 5.125 0.828125 C 4.820312 1.046875 4.457031 1.171875 4.03125 1.203125 C 3.613281 1.242188 3.171875 1.179688 2.703125 1.015625 Z M 2.703125 1.015625 "/></g></g></g><g fill="#00ffff" fill-opacity="1"><g transform="translate(106.924903, 81.606674)"><g/></g></g><g fill="#00ffff" fill-opacity="1"><g transform="translate(108.642786, 82.286519)"><g/></g></g><g fill="#00ffff" fill-opacity="1"><g transform="translate(110.288473, 82.931505)"><g><path d="M 2.578125 1.328125 C 2.109375 1.097656 1.734375 0.820312 1.453125 0.5 C 1.179688 0.175781 1.015625 -0.171875 0.953125 -0.546875 C 0.898438 -0.921875 0.96875 -1.296875 1.15625 -1.671875 L 1.203125 -1.796875 C 1.222656 -1.835938 1.253906 -1.867188 1.296875 -1.890625 C 1.335938 -1.910156 1.382812 -1.910156 1.4375 -1.890625 L 2.53125 -1.359375 C 2.582031 -1.335938 2.617188 -1.304688 2.640625 -1.265625 C 2.660156 -1.234375 2.664062 -1.203125 2.65625 -1.171875 L 2.59375 -1.0625 C 2.507812 -0.882812 2.523438 -0.675781 2.640625 -0.4375 C 2.765625 -0.207031 2.972656 -0.0195312 3.265625 0.125 C 3.523438 0.238281 3.738281 0.269531 3.90625 0.21875 C 4.082031 0.175781 4.207031 0.0820312 4.28125 -0.0625 C 4.351562 -0.21875 4.335938 -0.375 4.234375 -0.53125 C 4.140625 -0.695312 3.9375 -0.921875 3.625 -1.203125 L 3.46875 -1.359375 C 3.15625 -1.660156 2.894531 -1.945312 2.6875 -2.21875 C 2.476562 -2.5 2.332031 -2.8125 2.25 -3.15625 C 2.175781 -3.5 2.226562 -3.863281 2.40625 -4.25 C 2.582031 -4.601562 2.828125 -4.867188 3.140625 -5.046875 C 3.460938 -5.222656 3.820312 -5.304688 4.21875 -5.296875 C 4.625 -5.285156 5.039062 -5.175781 5.46875 -4.96875 C 5.914062 -4.757812 6.273438 -4.488281 6.546875 -4.15625 C 6.828125 -3.820312 7 -3.457031 7.0625 -3.0625 C 7.125 -2.664062 7.0625 -2.273438 6.875 -1.890625 L 6.84375 -1.8125 C 6.820312 -1.769531 6.789062 -1.738281 6.75 -1.71875 C 6.707031 -1.707031 6.660156 -1.710938 6.609375 -1.734375 L 5.5 -2.265625 C 5.457031 -2.285156 5.421875 -2.3125 5.390625 -2.34375 C 5.367188 -2.375 5.367188 -2.40625 5.390625 -2.4375 L 5.421875 -2.515625 C 5.515625 -2.710938 5.507812 -2.929688 5.40625 -3.171875 C 5.3125 -3.421875 5.113281 -3.617188 4.8125 -3.765625 C 4.582031 -3.867188 4.378906 -3.90625 4.203125 -3.875 C 4.023438 -3.84375 3.898438 -3.738281 3.828125 -3.5625 C 3.765625 -3.4375 3.753906 -3.316406 3.796875 -3.203125 C 3.835938 -3.085938 3.925781 -2.945312 4.0625 -2.78125 C 4.195312 -2.625 4.414062 -2.40625 4.71875 -2.125 C 5.0625 -1.789062 5.316406 -1.515625 5.484375 -1.296875 C 5.660156 -1.085938 5.796875 -0.816406 5.890625 -0.484375 C 5.984375 -0.160156 5.9375 0.191406 5.75 0.578125 C 5.570312 0.941406 5.320312 1.21875 5 1.40625 C 4.675781 1.59375 4.300781 1.675781 3.875 1.65625 C 3.457031 1.644531 3.023438 1.535156 2.578125 1.328125 Z M 2.578125 1.328125 "/></g></g></g><g fill="#00ffff" fill-opacity="1"><g transform="translate(115.249348, 85.286576)"><g><path d="M 0.5625 0.3125 C 0.507812 0.289062 0.476562 0.257812 0.46875 0.21875 C 0.457031 0.175781 0.460938 0.128906 0.484375 0.078125 L 3.65625 -5.484375 C 3.675781 -5.523438 3.707031 -5.554688 3.75 -5.578125 C 3.800781 -5.597656 3.851562 -5.597656 3.90625 -5.578125 L 5 -4.953125 C 5.039062 -4.921875 5.066406 -4.878906 5.078125 -4.828125 C 5.085938 -4.773438 5.082031 -4.726562 5.0625 -4.6875 L 3.875 -2.59375 C 3.851562 -2.570312 3.847656 -2.550781 3.859375 -2.53125 C 3.878906 -2.519531 3.898438 -2.519531 3.921875 -2.53125 L 6.8125 -3.78125 C 6.894531 -3.820312 6.972656 -3.820312 7.046875 -3.78125 L 8.296875 -3.078125 C 8.378906 -3.023438 8.398438 -2.960938 8.359375 -2.890625 C 8.335938 -2.859375 8.3125 -2.835938 8.28125 -2.828125 L 5.171875 -1.484375 C 5.148438 -1.460938 5.132812 -1.4375 5.125 -1.40625 L 5.25 2.734375 C 5.238281 2.765625 5.222656 2.796875 5.203125 2.828125 C 5.171875 2.890625 5.113281 2.898438 5.03125 2.859375 L 3.796875 2.15625 C 3.722656 2.113281 3.675781 2.046875 3.65625 1.953125 L 3.640625 -0.953125 C 3.640625 -0.984375 3.628906 -1.003906 3.609375 -1.015625 C 3.585938 -1.035156 3.566406 -1.035156 3.546875 -1.015625 L 2.8125 -0.671875 C 2.789062 -0.671875 2.769531 -0.648438 2.75 -0.609375 L 1.890625 0.875 C 1.867188 0.925781 1.832031 0.957031 1.78125 0.96875 C 1.738281 0.976562 1.695312 0.96875 1.65625 0.9375 Z M 0.5625 0.3125 "/></g></g></g><g fill="#00ffff" fill-opacity="1"><g transform="translate(120.324918, 88.156513)"><g><path d="M 2.046875 1.34375 C 2.003906 1.3125 1.976562 1.273438 1.96875 1.234375 C 1.957031 1.191406 1.96875 1.148438 2 1.109375 L 3.234375 -0.734375 C 3.242188 -0.753906 3.242188 -0.785156 3.234375 -0.828125 L 3.890625 -5.28125 L 3.921875 -5.359375 C 3.972656 -5.429688 4.039062 -5.4375 4.125 -5.375 L 5.265625 -4.625 C 5.335938 -4.570312 5.363281 -4.5 5.34375 -4.40625 L 4.875 -1.875 C 4.863281 -1.832031 4.867188 -1.804688 4.890625 -1.796875 C 4.910156 -1.785156 4.929688 -1.789062 4.953125 -1.8125 L 7.125 -3.21875 C 7.207031 -3.269531 7.285156 -3.269531 7.359375 -3.21875 L 8.5 -2.453125 C 8.550781 -2.421875 8.578125 -2.390625 8.578125 -2.359375 C 8.585938 -2.328125 8.582031 -2.296875 8.5625 -2.265625 C 8.539062 -2.234375 8.519531 -2.210938 8.5 -2.203125 L 4.59375 0.09375 C 4.570312 0.101562 4.554688 0.117188 4.546875 0.140625 L 3.3125 1.984375 C 3.28125 2.023438 3.242188 2.046875 3.203125 2.046875 C 3.160156 2.054688 3.113281 2.050781 3.0625 2.03125 Z M 2.046875 1.34375 "/></g></g></g><g fill="#00ffff" fill-opacity="1"><g transform="translate(125.251398, 91.503584)"><g/></g></g><g fill="#00ffff" fill-opacity="1"><g transform="translate(126.737182, 92.601664)"><g/></g></g><g fill="#ff00ff" fill-opacity="1"><g transform="translate(70.323333, 76.771063)"><g><path d="M 2.953125 -0.109375 C 2.441406 -0.078125 1.984375 -0.144531 1.578125 -0.3125 C 1.179688 -0.488281 0.859375 -0.753906 0.609375 -1.109375 C 0.367188 -1.472656 0.234375 -1.894531 0.203125 -2.375 L 0.0625 -4.453125 C 0.03125 -4.921875 0.113281 -5.34375 0.3125 -5.71875 C 0.507812 -6.09375 0.796875 -6.394531 1.171875 -6.625 C 1.546875 -6.851562 1.988281 -6.984375 2.5 -7.015625 C 3.007812 -7.054688 3.460938 -6.992188 3.859375 -6.828125 C 4.265625 -6.660156 4.585938 -6.410156 4.828125 -6.078125 C 5.066406 -5.742188 5.203125 -5.351562 5.234375 -4.90625 C 5.234375 -4.84375 5.175781 -4.804688 5.0625 -4.796875 L 3.828125 -4.609375 L 3.78125 -4.609375 C 3.6875 -4.609375 3.640625 -4.625 3.640625 -4.65625 L 3.625 -4.71875 C 3.601562 -5.019531 3.5 -5.253906 3.3125 -5.421875 C 3.132812 -5.585938 2.894531 -5.660156 2.59375 -5.640625 C 2.300781 -5.628906 2.066406 -5.523438 1.890625 -5.328125 C 1.722656 -5.128906 1.648438 -4.878906 1.671875 -4.578125 L 1.8125 -2.40625 C 1.832031 -2.101562 1.941406 -1.867188 2.140625 -1.703125 C 2.335938 -1.546875 2.582031 -1.472656 2.875 -1.484375 C 3.175781 -1.503906 3.40625 -1.609375 3.5625 -1.796875 C 3.71875 -1.992188 3.785156 -2.242188 3.765625 -2.546875 C 3.765625 -2.585938 3.78125 -2.613281 3.8125 -2.625 C 3.84375 -2.644531 3.882812 -2.65625 3.9375 -2.65625 L 5.203125 -2.671875 C 5.316406 -2.660156 5.375 -2.644531 5.375 -2.625 L 5.390625 -2.578125 C 5.421875 -2.117188 5.335938 -1.710938 5.140625 -1.359375 C 4.941406 -1.003906 4.65625 -0.71875 4.28125 -0.5 C 3.90625 -0.28125 3.460938 -0.148438 2.953125 -0.109375 Z M 2.953125 -0.109375 "/></g></g></g><g fill="#ff00ff" fill-opacity="1"><g transform="translate(75.946136, 76.399231)"><g><path d="M 0.640625 0 C 0.585938 0 0.546875 -0.015625 0.515625 -0.046875 C 0.484375 -0.078125 0.46875 -0.117188 0.46875 -0.171875 L 0.484375 -6.578125 C 0.484375 -6.628906 0.5 -6.671875 0.53125 -6.703125 C 0.5625 -6.742188 0.601562 -6.765625 0.65625 -6.765625 L 1.921875 -6.765625 C 1.972656 -6.765625 2.015625 -6.742188 2.046875 -6.703125 C 2.078125 -6.671875 2.09375 -6.628906 2.09375 -6.578125 L 2.078125 -1.4375 C 2.078125 -1.394531 2.097656 -1.375 2.140625 -1.375 L 5.140625 -1.359375 C 5.191406 -1.359375 5.234375 -1.34375 5.265625 -1.3125 C 5.304688 -1.28125 5.328125 -1.238281 5.328125 -1.1875 L 5.328125 -0.15625 C 5.328125 -0.101562 5.304688 -0.0625 5.265625 -0.03125 C 5.234375 0 5.191406 0.015625 5.140625 0.015625 Z M 0.640625 0 "/></g></g></g><g fill="#ff00ff" fill-opacity="1"><g transform="translate(81.303024, 76.442897)"><g><path d="M 0.640625 0.03125 C 0.585938 0.03125 0.546875 0.015625 0.515625 -0.015625 C 0.484375 -0.046875 0.472656 -0.0859375 0.484375 -0.140625 L 0.796875 -6.53125 C 0.796875 -6.582031 0.8125 -6.625 0.84375 -6.65625 C 0.882812 -6.695312 0.929688 -6.71875 0.984375 -6.71875 L 2.25 -6.65625 C 2.300781 -6.65625 2.335938 -6.632812 2.359375 -6.59375 C 2.390625 -6.550781 2.40625 -6.503906 2.40625 -6.453125 L 2.09375 -0.0625 C 2.082031 -0.0078125 2.0625 0.0234375 2.03125 0.046875 C 2 0.078125 1.957031 0.09375 1.90625 0.09375 Z M 0.640625 0.03125 "/></g></g></g><g fill="#ff00ff" fill-opacity="1"><g transform="translate(83.761279, 76.569421)"><g/></g></g><g fill="#ff00ff" fill-opacity="1"><g transform="translate(85.529943, 76.661755)"><g><path d="M 5.90625 -4.875 C 5.90625 -4.820312 5.882812 -4.78125 5.84375 -4.75 C 5.8125 -4.726562 5.769531 -4.71875 5.71875 -4.71875 L 2.78125 -5.078125 C 2.738281 -5.085938 2.710938 -5.070312 2.703125 -5.03125 L 2.5625 -3.890625 C 2.5625 -3.847656 2.582031 -3.820312 2.625 -3.8125 L 4.46875 -3.59375 C 4.519531 -3.582031 4.5625 -3.554688 4.59375 -3.515625 C 4.625 -3.472656 4.640625 -3.429688 4.640625 -3.390625 L 4.515625 -2.390625 C 4.503906 -2.335938 4.476562 -2.296875 4.4375 -2.265625 C 4.394531 -2.242188 4.347656 -2.238281 4.296875 -2.25 L 2.453125 -2.46875 C 2.410156 -2.476562 2.390625 -2.457031 2.390625 -2.40625 L 2.234375 -1.171875 C 2.234375 -1.128906 2.253906 -1.101562 2.296875 -1.09375 L 5.234375 -0.734375 C 5.285156 -0.734375 5.320312 -0.710938 5.34375 -0.671875 C 5.375 -0.640625 5.382812 -0.597656 5.375 -0.546875 L 5.25 0.46875 C 5.25 0.519531 5.226562 0.554688 5.1875 0.578125 C 5.15625 0.609375 5.113281 0.625 5.0625 0.625 L 0.640625 0.078125 C 0.585938 0.0664062 0.546875 0.046875 0.515625 0.015625 C 0.492188 -0.015625 0.484375 -0.0546875 0.484375 -0.109375 L 1.265625 -6.46875 C 1.273438 -6.519531 1.296875 -6.5625 1.328125 -6.59375 C 1.367188 -6.632812 1.414062 -6.648438 1.46875 -6.640625 L 5.890625 -6.09375 C 5.941406 -6.09375 5.976562 -6.070312 6 -6.03125 C 6.03125 -5.988281 6.039062 -5.941406 6.03125 -5.890625 Z M 5.90625 -4.875 "/></g></g></g><g fill="#ff00ff" fill-opacity="1"><g transform="translate(90.810433, 77.285441)"><g><path d="M 0.640625 0.125 C 0.585938 0.113281 0.546875 0.0859375 0.515625 0.046875 C 0.492188 0.015625 0.488281 -0.0234375 0.5 -0.078125 L 1.71875 -6.359375 C 1.726562 -6.410156 1.753906 -6.453125 1.796875 -6.484375 C 1.835938 -6.515625 1.882812 -6.523438 1.9375 -6.515625 L 3.109375 -6.28125 C 3.203125 -6.269531 3.257812 -6.21875 3.28125 -6.125 L 4.671875 -2.1875 C 4.679688 -2.164062 4.695312 -2.15625 4.71875 -2.15625 C 4.738281 -2.15625 4.753906 -2.171875 4.765625 -2.203125 L 5.40625 -5.640625 C 5.414062 -5.691406 5.441406 -5.734375 5.484375 -5.765625 C 5.523438 -5.796875 5.570312 -5.804688 5.625 -5.796875 L 6.84375 -5.5625 C 6.882812 -5.550781 6.914062 -5.523438 6.9375 -5.484375 C 6.96875 -5.441406 6.976562 -5.394531 6.96875 -5.34375 L 5.75 0.9375 C 5.738281 0.988281 5.710938 1.023438 5.671875 1.046875 C 5.628906 1.078125 5.585938 1.085938 5.546875 1.078125 L 4.390625 0.859375 C 4.296875 0.835938 4.234375 0.785156 4.203125 0.703125 L 2.8125 -3.28125 C 2.800781 -3.3125 2.785156 -3.328125 2.765625 -3.328125 C 2.742188 -3.328125 2.734375 -3.3125 2.734375 -3.28125 L 2.0625 0.21875 C 2.050781 0.269531 2.023438 0.304688 1.984375 0.328125 C 1.953125 0.359375 1.910156 0.367188 1.859375 0.359375 Z M 0.640625 0.125 "/></g></g></g><g fill="#ff00ff" fill-opacity="1"><g transform="translate(96.746023, 78.442693)"><g><path d="M 6.875 -5.15625 C 6.925781 -5.132812 6.960938 -5.101562 6.984375 -5.0625 C 7.003906 -5.019531 7.007812 -4.972656 7 -4.921875 L 6.734375 -3.9375 C 6.710938 -3.882812 6.679688 -3.84375 6.640625 -3.8125 C 6.609375 -3.789062 6.566406 -3.789062 6.515625 -3.8125 L 4.96875 -4.21875 C 4.925781 -4.238281 4.898438 -4.226562 4.890625 -4.1875 L 3.546875 0.765625 C 3.535156 0.816406 3.507812 0.851562 3.46875 0.875 C 3.425781 0.90625 3.378906 0.914062 3.328125 0.90625 L 2.109375 0.5625 C 2.054688 0.550781 2.019531 0.523438 2 0.484375 C 1.988281 0.453125 1.988281 0.410156 2 0.359375 L 3.34375 -4.59375 C 3.351562 -4.632812 3.335938 -4.660156 3.296875 -4.671875 L 1.78125 -5.078125 C 1.726562 -5.097656 1.691406 -5.125 1.671875 -5.15625 C 1.648438 -5.195312 1.648438 -5.242188 1.671875 -5.296875 L 1.9375 -6.28125 C 1.945312 -6.332031 1.96875 -6.375 2 -6.40625 C 2.039062 -6.4375 2.085938 -6.441406 2.140625 -6.421875 Z M 6.875 -5.15625 "/></g></g></g><g fill="#ff00ff" fill-opacity="1"><g transform="translate(102.011338, 79.854566)"><g><path d="M 2.703125 1.015625 C 2.210938 0.847656 1.8125 0.617188 1.5 0.328125 C 1.195312 0.046875 0.992188 -0.273438 0.890625 -0.640625 C 0.796875 -1.015625 0.816406 -1.398438 0.953125 -1.796875 L 1 -1.921875 C 1.007812 -1.960938 1.035156 -1.992188 1.078125 -2.015625 C 1.117188 -2.046875 1.160156 -2.050781 1.203125 -2.03125 L 2.359375 -1.640625 C 2.410156 -1.617188 2.445312 -1.59375 2.46875 -1.5625 C 2.5 -1.53125 2.507812 -1.5 2.5 -1.46875 L 2.453125 -1.359375 C 2.390625 -1.171875 2.429688 -0.960938 2.578125 -0.734375 C 2.722656 -0.515625 2.953125 -0.347656 3.265625 -0.234375 C 3.523438 -0.148438 3.738281 -0.140625 3.90625 -0.203125 C 4.082031 -0.273438 4.195312 -0.390625 4.25 -0.546875 C 4.300781 -0.710938 4.265625 -0.867188 4.140625 -1.015625 C 4.023438 -1.160156 3.796875 -1.363281 3.453125 -1.625 L 3.296875 -1.75 C 2.941406 -2.007812 2.644531 -2.265625 2.40625 -2.515625 C 2.175781 -2.765625 2 -3.054688 1.875 -3.390625 C 1.757812 -3.722656 1.769531 -4.085938 1.90625 -4.484375 C 2.039062 -4.859375 2.253906 -5.15625 2.546875 -5.375 C 2.847656 -5.59375 3.195312 -5.71875 3.59375 -5.75 C 4 -5.78125 4.421875 -5.71875 4.859375 -5.5625 C 5.335938 -5.394531 5.734375 -5.160156 6.046875 -4.859375 C 6.359375 -4.566406 6.566406 -4.226562 6.671875 -3.84375 C 6.773438 -3.457031 6.753906 -3.066406 6.609375 -2.671875 L 6.59375 -2.59375 C 6.570312 -2.539062 6.539062 -2.503906 6.5 -2.484375 C 6.46875 -2.472656 6.425781 -2.472656 6.375 -2.484375 L 5.203125 -2.890625 C 5.148438 -2.910156 5.113281 -2.929688 5.09375 -2.953125 C 5.070312 -2.972656 5.066406 -3 5.078125 -3.03125 L 5.109375 -3.125 C 5.179688 -3.332031 5.148438 -3.550781 5.015625 -3.78125 C 4.890625 -4.007812 4.671875 -4.175781 4.359375 -4.28125 C 4.117188 -4.363281 3.910156 -4.378906 3.734375 -4.328125 C 3.554688 -4.273438 3.441406 -4.160156 3.390625 -3.984375 C 3.335938 -3.847656 3.34375 -3.722656 3.40625 -3.609375 C 3.46875 -3.492188 3.570312 -3.367188 3.71875 -3.234375 C 3.863281 -3.097656 4.101562 -2.898438 4.4375 -2.640625 C 4.820312 -2.347656 5.109375 -2.109375 5.296875 -1.921875 C 5.492188 -1.734375 5.65625 -1.476562 5.78125 -1.15625 C 5.914062 -0.84375 5.914062 -0.484375 5.78125 -0.078125 C 5.644531 0.304688 5.425781 0.609375 5.125 0.828125 C 4.820312 1.046875 4.457031 1.171875 4.03125 1.203125 C 3.613281 1.242188 3.171875 1.179688 2.703125 1.015625 Z M 2.703125 1.015625 "/></g></g></g><g fill="#ff00ff" fill-opacity="1"><g transform="translate(107.272387, 81.708643)"><g/></g></g><g fill="#ff00ff" fill-opacity="1"><g transform="translate(108.990275, 82.388478)"><g/></g></g><g fill="#ff00ff" fill-opacity="1"><g transform="translate(110.635964, 83.033472)"><g><path d="M 2.578125 1.328125 C 2.109375 1.097656 1.734375 0.820312 1.453125 0.5 C 1.179688 0.175781 1.015625 -0.171875 0.953125 -0.546875 C 0.898438 -0.921875 0.96875 -1.296875 1.15625 -1.671875 L 1.203125 -1.796875 C 1.222656 -1.835938 1.253906 -1.867188 1.296875 -1.890625 C 1.335938 -1.910156 1.382812 -1.910156 1.4375 -1.890625 L 2.53125 -1.359375 C 2.582031 -1.335938 2.617188 -1.304688 2.640625 -1.265625 C 2.660156 -1.234375 2.664062 -1.203125 2.65625 -1.171875 L 2.59375 -1.0625 C 2.507812 -0.882812 2.523438 -0.675781 2.640625 -0.4375 C 2.765625 -0.207031 2.972656 -0.0195312 3.265625 0.125 C 3.523438 0.238281 3.738281 0.269531 3.90625 0.21875 C 4.082031 0.175781 4.207031 0.0820312 4.28125 -0.0625 C 4.351562 -0.21875 4.335938 -0.375 4.234375 -0.53125 C 4.140625 -0.695312 3.9375 -0.921875 3.625 -1.203125 L 3.46875 -1.359375 C 3.15625 -1.660156 2.894531 -1.945312 2.6875 -2.21875 C 2.476562 -2.5 2.332031 -2.8125 2.25 -3.15625 C 2.175781 -3.5 2.226562 -3.863281 2.40625 -4.25 C 2.582031 -4.601562 2.828125 -4.867188 3.140625 -5.046875 C 3.460938 -5.222656 3.820312 -5.304688 4.21875 -5.296875 C 4.625 -5.285156 5.039062 -5.175781 5.46875 -4.96875 C 5.914062 -4.757812 6.273438 -4.488281 6.546875 -4.15625 C 6.828125 -3.820312 7 -3.457031 7.0625 -3.0625 C 7.125 -2.664062 7.0625 -2.273438 6.875 -1.890625 L 6.84375 -1.8125 C 6.820312 -1.769531 6.789062 -1.738281 6.75 -1.71875 C 6.707031 -1.707031 6.660156 -1.710938 6.609375 -1.734375 L 5.5 -2.265625 C 5.457031 -2.285156 5.421875 -2.3125 5.390625 -2.34375 C 5.367188 -2.375 5.367188 -2.40625 5.390625 -2.4375 L 5.421875 -2.515625 C 5.515625 -2.710938 5.507812 -2.929688 5.40625 -3.171875 C 5.3125 -3.421875 5.113281 -3.617188 4.8125 -3.765625 C 4.582031 -3.867188 4.378906 -3.90625 4.203125 -3.875 C 4.023438 -3.84375 3.898438 -3.738281 3.828125 -3.5625 C 3.765625 -3.4375 3.753906 -3.316406 3.796875 -3.203125 C 3.835938 -3.085938 3.925781 -2.945312 4.0625 -2.78125 C 4.195312 -2.625 4.414062 -2.40625 4.71875 -2.125 C 5.0625 -1.789062 5.316406 -1.515625 5.484375 -1.296875 C 5.660156 -1.085938 5.796875 -0.816406 5.890625 -0.484375 C 5.984375 -0.160156 5.9375 0.191406 5.75 0.578125 C 5.570312 0.941406 5.320312 1.21875 5 1.40625 C 4.675781 1.59375 4.300781 1.675781 3.875 1.65625 C 3.457031 1.644531 3.023438 1.535156 2.578125 1.328125 Z M 2.578125 1.328125 "/></g></g></g><g fill="#ff00ff" fill-opacity="1"><g transform="translate(115.596839, 85.388543)"><g><path d="M 0.5625 0.3125 C 0.507812 0.289062 0.476562 0.257812 0.46875 0.21875 C 0.457031 0.175781 0.460938 0.128906 0.484375 0.078125 L 3.65625 -5.484375 C 3.675781 -5.523438 3.707031 -5.554688 3.75 -5.578125 C 3.800781 -5.597656 3.851562 -5.597656 3.90625 -5.578125 L 5 -4.953125 C 5.039062 -4.921875 5.066406 -4.878906 5.078125 -4.828125 C 5.085938 -4.773438 5.082031 -4.726562 5.0625 -4.6875 L 3.875 -2.59375 C 3.851562 -2.570312 3.847656 -2.550781 3.859375 -2.53125 C 3.878906 -2.519531 3.898438 -2.519531 3.921875 -2.53125 L 6.8125 -3.78125 C 6.894531 -3.820312 6.972656 -3.820312 7.046875 -3.78125 L 8.296875 -3.078125 C 8.378906 -3.023438 8.398438 -2.960938 8.359375 -2.890625 C 8.335938 -2.859375 8.3125 -2.835938 8.28125 -2.828125 L 5.171875 -1.484375 C 5.148438 -1.460938 5.132812 -1.4375 5.125 -1.40625 L 5.25 2.734375 C 5.238281 2.765625 5.222656 2.796875 5.203125 2.828125 C 5.171875 2.890625 5.113281 2.898438 5.03125 2.859375 L 3.796875 2.15625 C 3.722656 2.113281 3.675781 2.046875 3.65625 1.953125 L 3.640625 -0.953125 C 3.640625 -0.984375 3.628906 -1.003906 3.609375 -1.015625 C 3.585938 -1.035156 3.566406 -1.035156 3.546875 -1.015625 L 2.8125 -0.671875 C 2.789062 -0.671875 2.769531 -0.648438 2.75 -0.609375 L 1.890625 0.875 C 1.867188 0.925781 1.832031 0.957031 1.78125 0.96875 C 1.738281 0.976562 1.695312 0.96875 1.65625 0.9375 Z M 0.5625 0.3125 "/></g></g></g><g fill="#ff00ff" fill-opacity="1"><g transform="translate(120.67241, 88.258479)"><g><path d="M 2.046875 1.34375 C 2.003906 1.3125 1.976562 1.273438 1.96875 1.234375 C 1.957031 1.191406 1.96875 1.148438 2 1.109375 L 3.234375 -0.734375 C 3.242188 -0.753906 3.242188 -0.785156 3.234375 -0.828125 L 3.890625 -5.28125 L 3.921875 -5.359375 C 3.972656 -5.429688 4.039062 -5.4375 4.125 -5.375 L 5.265625 -4.625 C 5.335938 -4.570312 5.363281 -4.5 5.34375 -4.40625 L 4.875 -1.875 C 4.863281 -1.832031 4.867188 -1.804688 4.890625 -1.796875 C 4.910156 -1.785156 4.929688 -1.789062 4.953125 -1.8125 L 7.125 -3.21875 C 7.207031 -3.269531 7.285156 -3.269531 7.359375 -3.21875 L 8.5 -2.453125 C 8.550781 -2.421875 8.578125 -2.390625 8.578125 -2.359375 C 8.585938 -2.328125 8.582031 -2.296875 8.5625 -2.265625 C 8.539062 -2.234375 8.519531 -2.210938 8.5 -2.203125 L 4.59375 0.09375 C 4.570312 0.101562 4.554688 0.117188 4.546875 0.140625 L 3.3125 1.984375 C 3.28125 2.023438 3.242188 2.046875 3.203125 2.046875 C 3.160156 2.054688 3.113281 2.050781 3.0625 2.03125 Z M 2.046875 1.34375 "/></g></g></g><g fill="#ff00ff" fill-opacity="1"><g transform="translate(125.598887, 91.60555)"><g/></g></g><g fill="#ff00ff" fill-opacity="1"><g transform="translate(127.084688, 92.703626)"><g/></g></g><g fill="#5e17eb" fill-opacity="1"><g transform="translate(70.149587, 76.720078)"><g><path d="M 2.953125 -0.109375 C 2.441406 -0.078125 1.984375 -0.144531 1.578125 -0.3125 C 1.179688 -0.488281 0.859375 -0.753906 0.609375 -1.109375 C 0.367188 -1.472656 0.234375 -1.894531 0.203125 -2.375 L 0.0625 -4.453125 C 0.03125 -4.921875 0.113281 -5.34375 0.3125 -5.71875 C 0.507812 -6.09375 0.796875 -6.394531 1.171875 -6.625 C 1.546875 -6.851562 1.988281 -6.984375 2.5 -7.015625 C 3.007812 -7.054688 3.460938 -6.992188 3.859375 -6.828125 C 4.265625 -6.660156 4.585938 -6.410156 4.828125 -6.078125 C 5.066406 -5.742188 5.203125 -5.351562 5.234375 -4.90625 C 5.234375 -4.84375 5.175781 -4.804688 5.0625 -4.796875 L 3.828125 -4.609375 L 3.78125 -4.609375 C 3.6875 -4.609375 3.640625 -4.625 3.640625 -4.65625 L 3.625 -4.71875 C 3.601562 -5.019531 3.5 -5.253906 3.3125 -5.421875 C 3.132812 -5.585938 2.894531 -5.660156 2.59375 -5.640625 C 2.300781 -5.628906 2.066406 -5.523438 1.890625 -5.328125 C 1.722656 -5.128906 1.648438 -4.878906 1.671875 -4.578125 L 1.8125 -2.40625 C 1.832031 -2.101562 1.941406 -1.867188 2.140625 -1.703125 C 2.335938 -1.546875 2.582031 -1.472656 2.875 -1.484375 C 3.175781 -1.503906 3.40625 -1.609375 3.5625 -1.796875 C 3.71875 -1.992188 3.785156 -2.242188 3.765625 -2.546875 C 3.765625 -2.585938 3.78125 -2.613281 3.8125 -2.625 C 3.84375 -2.644531 3.882812 -2.65625 3.9375 -2.65625 L 5.203125 -2.671875 C 5.316406 -2.660156 5.375 -2.644531 5.375 -2.625 L 5.390625 -2.578125 C 5.421875 -2.117188 5.335938 -1.710938 5.140625 -1.359375 C 4.941406 -1.003906 4.65625 -0.71875 4.28125 -0.5 C 3.90625 -0.28125 3.460938 -0.148438 2.953125 -0.109375 Z M 2.953125 -0.109375 "/></g></g></g><g fill="#5e17eb" fill-opacity="1"><g transform="translate(75.77239, 76.348248)"><g><path d="M 0.640625 0 C 0.585938 0 0.546875 -0.015625 0.515625 -0.046875 C 0.484375 -0.078125 0.46875 -0.117188 0.46875 -0.171875 L 0.484375 -6.578125 C 0.484375 -6.628906 0.5 -6.671875 0.53125 -6.703125 C 0.5625 -6.742188 0.601562 -6.765625 0.65625 -6.765625 L 1.921875 -6.765625 C 1.972656 -6.765625 2.015625 -6.742188 2.046875 -6.703125 C 2.078125 -6.671875 2.09375 -6.628906 2.09375 -6.578125 L 2.078125 -1.4375 C 2.078125 -1.394531 2.097656 -1.375 2.140625 -1.375 L 5.140625 -1.359375 C 5.191406 -1.359375 5.234375 -1.34375 5.265625 -1.3125 C 5.304688 -1.28125 5.328125 -1.238281 5.328125 -1.1875 L 5.328125 -0.15625 C 5.328125 -0.101562 5.304688 -0.0625 5.265625 -0.03125 C 5.234375 0 5.191406 0.015625 5.140625 0.015625 Z M 0.640625 0 "/></g></g></g><g fill="#5e17eb" fill-opacity="1"><g transform="translate(81.129288, 76.391914)"><g><path d="M 0.640625 0.03125 C 0.585938 0.03125 0.546875 0.015625 0.515625 -0.015625 C 0.484375 -0.046875 0.472656 -0.0859375 0.484375 -0.140625 L 0.796875 -6.53125 C 0.796875 -6.582031 0.8125 -6.625 0.84375 -6.65625 C 0.882812 -6.695312 0.929688 -6.71875 0.984375 -6.71875 L 2.25 -6.65625 C 2.300781 -6.65625 2.335938 -6.632812 2.359375 -6.59375 C 2.390625 -6.550781 2.40625 -6.503906 2.40625 -6.453125 L 2.09375 -0.0625 C 2.082031 -0.0078125 2.0625 0.0234375 2.03125 0.046875 C 2 0.078125 1.957031 0.09375 1.90625 0.09375 Z M 0.640625 0.03125 "/></g></g></g><g fill="#5e17eb" fill-opacity="1"><g transform="translate(83.587533, 76.518438)"><g/></g></g><g fill="#5e17eb" fill-opacity="1"><g transform="translate(85.356198, 76.610772)"><g><path d="M 5.90625 -4.875 C 5.90625 -4.820312 5.882812 -4.78125 5.84375 -4.75 C 5.8125 -4.726562 5.769531 -4.71875 5.71875 -4.71875 L 2.78125 -5.078125 C 2.738281 -5.085938 2.710938 -5.070312 2.703125 -5.03125 L 2.5625 -3.890625 C 2.5625 -3.847656 2.582031 -3.820312 2.625 -3.8125 L 4.46875 -3.59375 C 4.519531 -3.582031 4.5625 -3.554688 4.59375 -3.515625 C 4.625 -3.472656 4.640625 -3.429688 4.640625 -3.390625 L 4.515625 -2.390625 C 4.503906 -2.335938 4.476562 -2.296875 4.4375 -2.265625 C 4.394531 -2.242188 4.347656 -2.238281 4.296875 -2.25 L 2.453125 -2.46875 C 2.410156 -2.476562 2.390625 -2.457031 2.390625 -2.40625 L 2.234375 -1.171875 C 2.234375 -1.128906 2.253906 -1.101562 2.296875 -1.09375 L 5.234375 -0.734375 C 5.285156 -0.734375 5.320312 -0.710938 5.34375 -0.671875 C 5.375 -0.640625 5.382812 -0.597656 5.375 -0.546875 L 5.25 0.46875 C 5.25 0.519531 5.226562 0.554688 5.1875 0.578125 C 5.15625 0.609375 5.113281 0.625 5.0625 0.625 L 0.640625 0.078125 C 0.585938 0.0664062 0.546875 0.046875 0.515625 0.015625 C 0.492188 -0.015625 0.484375 -0.0546875 0.484375 -0.109375 L 1.265625 -6.46875 C 1.273438 -6.519531 1.296875 -6.5625 1.328125 -6.59375 C 1.367188 -6.632812 1.414062 -6.648438 1.46875 -6.640625 L 5.890625 -6.09375 C 5.941406 -6.09375 5.976562 -6.070312 6 -6.03125 C 6.03125 -5.988281 6.039062 -5.941406 6.03125 -5.890625 Z M 5.90625 -4.875 "/></g></g></g><g fill="#5e17eb" fill-opacity="1"><g transform="translate(90.636687, 77.234458)"><g><path d="M 0.640625 0.125 C 0.585938 0.113281 0.546875 0.0859375 0.515625 0.046875 C 0.492188 0.015625 0.488281 -0.0234375 0.5 -0.078125 L 1.71875 -6.359375 C 1.726562 -6.410156 1.753906 -6.453125 1.796875 -6.484375 C 1.835938 -6.515625 1.882812 -6.523438 1.9375 -6.515625 L 3.109375 -6.28125 C 3.203125 -6.269531 3.257812 -6.21875 3.28125 -6.125 L 4.671875 -2.1875 C 4.679688 -2.164062 4.695312 -2.15625 4.71875 -2.15625 C 4.738281 -2.15625 4.753906 -2.171875 4.765625 -2.203125 L 5.40625 -5.640625 C 5.414062 -5.691406 5.441406 -5.734375 5.484375 -5.765625 C 5.523438 -5.796875 5.570312 -5.804688 5.625 -5.796875 L 6.84375 -5.5625 C 6.882812 -5.550781 6.914062 -5.523438 6.9375 -5.484375 C 6.96875 -5.441406 6.976562 -5.394531 6.96875 -5.34375 L 5.75 0.9375 C 5.738281 0.988281 5.710938 1.023438 5.671875 1.046875 C 5.628906 1.078125 5.585938 1.085938 5.546875 1.078125 L 4.390625 0.859375 C 4.296875 0.835938 4.234375 0.785156 4.203125 0.703125 L 2.8125 -3.28125 C 2.800781 -3.3125 2.785156 -3.328125 2.765625 -3.328125 C 2.742188 -3.328125 2.734375 -3.3125 2.734375 -3.28125 L 2.0625 0.21875 C 2.050781 0.269531 2.023438 0.304688 1.984375 0.328125 C 1.953125 0.359375 1.910156 0.367188 1.859375 0.359375 Z M 0.640625 0.125 "/></g></g></g><g fill="#5e17eb" fill-opacity="1"><g transform="translate(96.572277, 78.391717)"><g><path d="M 6.875 -5.15625 C 6.925781 -5.132812 6.960938 -5.101562 6.984375 -5.0625 C 7.003906 -5.019531 7.007812 -4.972656 7 -4.921875 L 6.734375 -3.9375 C 6.710938 -3.882812 6.679688 -3.84375 6.640625 -3.8125 C 6.609375 -3.789062 6.566406 -3.789062 6.515625 -3.8125 L 4.96875 -4.21875 C 4.925781 -4.238281 4.898438 -4.226562 4.890625 -4.1875 L 3.546875 0.765625 C 3.535156 0.816406 3.507812 0.851562 3.46875 0.875 C 3.425781 0.90625 3.378906 0.914062 3.328125 0.90625 L 2.109375 0.5625 C 2.054688 0.550781 2.019531 0.523438 2 0.484375 C 1.988281 0.453125 1.988281 0.410156 2 0.359375 L 3.34375 -4.59375 C 3.351562 -4.632812 3.335938 -4.660156 3.296875 -4.671875 L 1.78125 -5.078125 C 1.726562 -5.097656 1.691406 -5.125 1.671875 -5.15625 C 1.648438 -5.195312 1.648438 -5.242188 1.671875 -5.296875 L 1.9375 -6.28125 C 1.945312 -6.332031 1.96875 -6.375 2 -6.40625 C 2.039062 -6.4375 2.085938 -6.441406 2.140625 -6.421875 Z M 6.875 -5.15625 "/></g></g></g><g fill="#5e17eb" fill-opacity="1"><g transform="translate(101.837595, 79.80358)"><g><path d="M 2.703125 1.015625 C 2.210938 0.847656 1.8125 0.617188 1.5 0.328125 C 1.195312 0.046875 0.992188 -0.273438 0.890625 -0.640625 C 0.796875 -1.015625 0.816406 -1.398438 0.953125 -1.796875 L 1 -1.921875 C 1.007812 -1.960938 1.035156 -1.992188 1.078125 -2.015625 C 1.117188 -2.046875 1.160156 -2.050781 1.203125 -2.03125 L 2.359375 -1.640625 C 2.410156 -1.617188 2.445312 -1.59375 2.46875 -1.5625 C 2.5 -1.53125 2.507812 -1.5 2.5 -1.46875 L 2.453125 -1.359375 C 2.390625 -1.171875 2.429688 -0.960938 2.578125 -0.734375 C 2.722656 -0.515625 2.953125 -0.347656 3.265625 -0.234375 C 3.523438 -0.148438 3.738281 -0.140625 3.90625 -0.203125 C 4.082031 -0.273438 4.195312 -0.390625 4.25 -0.546875 C 4.300781 -0.710938 4.265625 -0.867188 4.140625 -1.015625 C 4.023438 -1.160156 3.796875 -1.363281 3.453125 -1.625 L 3.296875 -1.75 C 2.941406 -2.007812 2.644531 -2.265625 2.40625 -2.515625 C 2.175781 -2.765625 2 -3.054688 1.875 -3.390625 C 1.757812 -3.722656 1.769531 -4.085938 1.90625 -4.484375 C 2.039062 -4.859375 2.253906 -5.15625 2.546875 -5.375 C 2.847656 -5.59375 3.195312 -5.71875 3.59375 -5.75 C 4 -5.78125 4.421875 -5.71875 4.859375 -5.5625 C 5.335938 -5.394531 5.734375 -5.160156 6.046875 -4.859375 C 6.359375 -4.566406 6.566406 -4.226562 6.671875 -3.84375 C 6.773438 -3.457031 6.753906 -3.066406 6.609375 -2.671875 L 6.59375 -2.59375 C 6.570312 -2.539062 6.539062 -2.503906 6.5 -2.484375 C 6.46875 -2.472656 6.425781 -2.472656 6.375 -2.484375 L 5.203125 -2.890625 C 5.148438 -2.910156 5.113281 -2.929688 5.09375 -2.953125 C 5.070312 -2.972656 5.066406 -3 5.078125 -3.03125 L 5.109375 -3.125 C 5.179688 -3.332031 5.148438 -3.550781 5.015625 -3.78125 C 4.890625 -4.007812 4.671875 -4.175781 4.359375 -4.28125 C 4.117188 -4.363281 3.910156 -4.378906 3.734375 -4.328125 C 3.554688 -4.273438 3.441406 -4.160156 3.390625 -3.984375 C 3.335938 -3.847656 3.34375 -3.722656 3.40625 -3.609375 C 3.46875 -3.492188 3.570312 -3.367188 3.71875 -3.234375 C 3.863281 -3.097656 4.101562 -2.898438 4.4375 -2.640625 C 4.820312 -2.347656 5.109375 -2.109375 5.296875 -1.921875 C 5.492188 -1.734375 5.65625 -1.476562 5.78125 -1.15625 C 5.914062 -0.84375 5.914062 -0.484375 5.78125 -0.078125 C 5.644531 0.304688 5.425781 0.609375 5.125 0.828125 C 4.820312 1.046875 4.457031 1.171875 4.03125 1.203125 C 3.613281 1.242188 3.171875 1.179688 2.703125 1.015625 Z M 2.703125 1.015625 "/></g></g></g><g fill="#5e17eb" fill-opacity="1"><g transform="translate(107.098642, 81.657659)"><g/></g></g><g fill="#5e17eb" fill-opacity="1"><g transform="translate(108.816532, 82.337495)"><g/></g></g><g fill="#5e17eb" fill-opacity="1"><g transform="translate(110.462218, 82.982488)"><g><path d="M 2.578125 1.328125 C 2.109375 1.097656 1.734375 0.820312 1.453125 0.5 C 1.179688 0.175781 1.015625 -0.171875 0.953125 -0.546875 C 0.898438 -0.921875 0.96875 -1.296875 1.15625 -1.671875 L 1.203125 -1.796875 C 1.222656 -1.835938 1.253906 -1.867188 1.296875 -1.890625 C 1.335938 -1.910156 1.382812 -1.910156 1.4375 -1.890625 L 2.53125 -1.359375 C 2.582031 -1.335938 2.617188 -1.304688 2.640625 -1.265625 C 2.660156 -1.234375 2.664062 -1.203125 2.65625 -1.171875 L 2.59375 -1.0625 C 2.507812 -0.882812 2.523438 -0.675781 2.640625 -0.4375 C 2.765625 -0.207031 2.972656 -0.0195312 3.265625 0.125 C 3.523438 0.238281 3.738281 0.269531 3.90625 0.21875 C 4.082031 0.175781 4.207031 0.0820312 4.28125 -0.0625 C 4.351562 -0.21875 4.335938 -0.375 4.234375 -0.53125 C 4.140625 -0.695312 3.9375 -0.921875 3.625 -1.203125 L 3.46875 -1.359375 C 3.15625 -1.660156 2.894531 -1.945312 2.6875 -2.21875 C 2.476562 -2.5 2.332031 -2.8125 2.25 -3.15625 C 2.175781 -3.5 2.226562 -3.863281 2.40625 -4.25 C 2.582031 -4.601562 2.828125 -4.867188 3.140625 -5.046875 C 3.460938 -5.222656 3.820312 -5.304688 4.21875 -5.296875 C 4.625 -5.285156 5.039062 -5.175781 5.46875 -4.96875 C 5.914062 -4.757812 6.273438 -4.488281 6.546875 -4.15625 C 6.828125 -3.820312 7 -3.457031 7.0625 -3.0625 C 7.125 -2.664062 7.0625 -2.273438 6.875 -1.890625 L 6.84375 -1.8125 C 6.820312 -1.769531 6.789062 -1.738281 6.75 -1.71875 C 6.707031 -1.707031 6.660156 -1.710938 6.609375 -1.734375 L 5.5 -2.265625 C 5.457031 -2.285156 5.421875 -2.3125 5.390625 -2.34375 C 5.367188 -2.375 5.367188 -2.40625 5.390625 -2.4375 L 5.421875 -2.515625 C 5.515625 -2.710938 5.507812 -2.929688 5.40625 -3.171875 C 5.3125 -3.421875 5.113281 -3.617188 4.8125 -3.765625 C 4.582031 -3.867188 4.378906 -3.90625 4.203125 -3.875 C 4.023438 -3.84375 3.898438 -3.738281 3.828125 -3.5625 C 3.765625 -3.4375 3.753906 -3.316406 3.796875 -3.203125 C 3.835938 -3.085938 3.925781 -2.945312 4.0625 -2.78125 C 4.195312 -2.625 4.414062 -2.40625 4.71875 -2.125 C 5.0625 -1.789062 5.316406 -1.515625 5.484375 -1.296875 C 5.660156 -1.085938 5.796875 -0.816406 5.890625 -0.484375 C 5.984375 -0.160156 5.9375 0.191406 5.75 0.578125 C 5.570312 0.941406 5.320312 1.21875 5 1.40625 C 4.675781 1.59375 4.300781 1.675781 3.875 1.65625 C 3.457031 1.644531 3.023438 1.535156 2.578125 1.328125 Z M 2.578125 1.328125 "/></g></g></g><g fill="#5e17eb" fill-opacity="1"><g transform="translate(115.423093, 85.337559)"><g><path d="M 0.5625 0.3125 C 0.507812 0.289062 0.476562 0.257812 0.46875 0.21875 C 0.457031 0.175781 0.460938 0.128906 0.484375 0.078125 L 3.65625 -5.484375 C 3.675781 -5.523438 3.707031 -5.554688 3.75 -5.578125 C 3.800781 -5.597656 3.851562 -5.597656 3.90625 -5.578125 L 5 -4.953125 C 5.039062 -4.921875 5.066406 -4.878906 5.078125 -4.828125 C 5.085938 -4.773438 5.082031 -4.726562 5.0625 -4.6875 L 3.875 -2.59375 C 3.851562 -2.570312 3.847656 -2.550781 3.859375 -2.53125 C 3.878906 -2.519531 3.898438 -2.519531 3.921875 -2.53125 L 6.8125 -3.78125 C 6.894531 -3.820312 6.972656 -3.820312 7.046875 -3.78125 L 8.296875 -3.078125 C 8.378906 -3.023438 8.398438 -2.960938 8.359375 -2.890625 C 8.335938 -2.859375 8.3125 -2.835938 8.28125 -2.828125 L 5.171875 -1.484375 C 5.148438 -1.460938 5.132812 -1.4375 5.125 -1.40625 L 5.25 2.734375 C 5.238281 2.765625 5.222656 2.796875 5.203125 2.828125 C 5.171875 2.890625 5.113281 2.898438 5.03125 2.859375 L 3.796875 2.15625 C 3.722656 2.113281 3.675781 2.046875 3.65625 1.953125 L 3.640625 -0.953125 C 3.640625 -0.984375 3.628906 -1.003906 3.609375 -1.015625 C 3.585938 -1.035156 3.566406 -1.035156 3.546875 -1.015625 L 2.8125 -0.671875 C 2.789062 -0.671875 2.769531 -0.648438 2.75 -0.609375 L 1.890625 0.875 C 1.867188 0.925781 1.832031 0.957031 1.78125 0.96875 C 1.738281 0.976562 1.695312 0.96875 1.65625 0.9375 Z M 0.5625 0.3125 "/></g></g></g><g fill="#5e17eb" fill-opacity="1"><g transform="translate(120.498664, 88.207496)"><g><path d="M 2.046875 1.34375 C 2.003906 1.3125 1.976562 1.273438 1.96875 1.234375 C 1.957031 1.191406 1.96875 1.148438 2 1.109375 L 3.234375 -0.734375 C 3.242188 -0.753906 3.242188 -0.785156 3.234375 -0.828125 L 3.890625 -5.28125 L 3.921875 -5.359375 C 3.972656 -5.429688 4.039062 -5.4375 4.125 -5.375 L 5.265625 -4.625 C 5.335938 -4.570312 5.363281 -4.5 5.34375 -4.40625 L 4.875 -1.875 C 4.863281 -1.832031 4.867188 -1.804688 4.890625 -1.796875 C 4.910156 -1.785156 4.929688 -1.789062 4.953125 -1.8125 L 7.125 -3.21875 C 7.207031 -3.269531 7.285156 -3.269531 7.359375 -3.21875 L 8.5 -2.453125 C 8.550781 -2.421875 8.578125 -2.390625 8.578125 -2.359375 C 8.585938 -2.328125 8.582031 -2.296875 8.5625 -2.265625 C 8.539062 -2.234375 8.519531 -2.210938 8.5 -2.203125 L 4.59375 0.09375 C 4.570312 0.101562 4.554688 0.117188 4.546875 0.140625 L 3.3125 1.984375 C 3.28125 2.023438 3.242188 2.046875 3.203125 2.046875 C 3.160156 2.054688 3.113281 2.050781 3.0625 2.03125 Z M 2.046875 1.34375 "/></g></g></g><g fill="#5e17eb" fill-opacity="1"><g transform="translate(125.425141, 91.554567)"><g/></g></g><g fill="#5e17eb" fill-opacity="1"><g transform="translate(126.910942, 92.65265)"><g/></g></g><g fill="#00c2cb" fill-opacity="0.4"><g transform="translate(135.523926, 93.791868)"><g><path d="M 0.4375 0.1875 C 0.34375 0.144531 0.328125 0.0859375 0.390625 0.015625 L 3.234375 -4.84375 C 3.273438 -4.914062 3.335938 -4.9375 3.421875 -4.90625 L 5.25 -4.109375 C 5.757812 -3.890625 6.113281 -3.582031 6.3125 -3.1875 C 6.507812 -2.800781 6.519531 -2.398438 6.34375 -1.984375 C 6.3125 -1.929688 6.265625 -1.859375 6.203125 -1.765625 L 5.015625 0.234375 C 4.847656 0.546875 4.617188 0.785156 4.328125 0.953125 C 4.035156 1.117188 3.707031 1.203125 3.34375 1.203125 C 2.988281 1.210938 2.628906 1.140625 2.265625 0.984375 Z M 1.90625 -0.328125 C 1.894531 -0.304688 1.898438 -0.289062 1.921875 -0.28125 L 2.8125 0.109375 C 3.039062 0.203125 3.269531 0.207031 3.5 0.125 C 3.726562 0.0390625 3.914062 -0.128906 4.0625 -0.390625 L 5.0625 -2.046875 C 5.082031 -2.085938 5.101562 -2.140625 5.125 -2.203125 C 5.226562 -2.429688 5.242188 -2.632812 5.171875 -2.8125 C 5.109375 -2.988281 4.972656 -3.117188 4.765625 -3.203125 L 3.875 -3.59375 C 3.832031 -3.613281 3.804688 -3.613281 3.796875 -3.59375 Z M 1.90625 -0.328125 "/></g></g></g><g fill="#00c2cb" fill-opacity="0.4"><g transform="translate(140.34457, 95.819607)"><g><path d="M 0.4375 0.15625 C 0.351562 0.125 0.335938 0.0703125 0.390625 0 L 2.875 -5.046875 C 2.925781 -5.117188 2.992188 -5.144531 3.078125 -5.125 L 3.890625 -4.828125 C 3.984375 -4.796875 4.003906 -4.742188 3.953125 -4.671875 L 1.453125 0.375 C 1.410156 0.445312 1.347656 0.472656 1.265625 0.453125 Z M 0.4375 0.15625 "/></g></g></g><g fill="#00c2cb" fill-opacity="0.4"><g transform="translate(142.547989, 96.642887)"><g><path d="M 2.21875 0.6875 C 1.664062 0.53125 1.265625 0.253906 1.015625 -0.140625 C 0.773438 -0.535156 0.726562 -0.988281 0.875 -1.5 C 0.914062 -1.632812 0.953125 -1.734375 0.984375 -1.796875 L 1.703125 -3.546875 C 1.859375 -3.921875 2.082031 -4.226562 2.375 -4.46875 C 2.675781 -4.71875 3.007812 -4.875 3.375 -4.9375 C 3.738281 -5.007812 4.128906 -4.988281 4.546875 -4.875 C 4.898438 -4.769531 5.195312 -4.613281 5.4375 -4.40625 C 5.675781 -4.195312 5.832031 -3.953125 5.90625 -3.671875 C 5.988281 -3.390625 5.988281 -3.09375 5.90625 -2.78125 C 5.882812 -2.726562 5.859375 -2.648438 5.828125 -2.546875 L 5.8125 -2.53125 C 5.78125 -2.445312 5.722656 -2.421875 5.640625 -2.453125 L 4.796875 -2.6875 C 4.753906 -2.695312 4.722656 -2.710938 4.703125 -2.734375 C 4.691406 -2.753906 4.6875 -2.769531 4.6875 -2.78125 L 4.71875 -2.84375 C 4.726562 -2.863281 4.738281 -2.898438 4.75 -2.953125 C 4.8125 -3.171875 4.789062 -3.375 4.6875 -3.5625 C 4.582031 -3.75 4.40625 -3.875 4.15625 -3.9375 C 3.875 -4.019531 3.609375 -4 3.359375 -3.875 C 3.117188 -3.75 2.941406 -3.546875 2.828125 -3.265625 L 2.078125 -1.4375 C 2.054688 -1.40625 2.035156 -1.363281 2.015625 -1.3125 C 1.953125 -1.0625 1.976562 -0.835938 2.09375 -0.640625 C 2.207031 -0.453125 2.390625 -0.320312 2.640625 -0.25 C 2.921875 -0.175781 3.171875 -0.1875 3.390625 -0.28125 C 3.609375 -0.375 3.769531 -0.546875 3.875 -0.796875 L 4.03125 -1.15625 C 4.039062 -1.1875 4.035156 -1.203125 4.015625 -1.203125 L 3.171875 -1.4375 C 3.078125 -1.46875 3.050781 -1.519531 3.09375 -1.59375 L 3.359375 -2.25 C 3.390625 -2.320312 3.445312 -2.347656 3.53125 -2.328125 L 5.375 -1.8125 C 5.46875 -1.789062 5.5 -1.738281 5.46875 -1.65625 L 5.046875 -0.65625 C 4.796875 -0.0625 4.414062 0.351562 3.90625 0.59375 C 3.394531 0.832031 2.832031 0.863281 2.21875 0.6875 Z M 2.21875 0.6875 "/></g></g></g><g fill="#00c2cb" fill-opacity="0.4"><g transform="translate(147.515384, 97.977564)"><g><path d="M 0.453125 0.09375 C 0.367188 0.0703125 0.347656 0.0195312 0.390625 -0.0625 L 2.1875 -5.390625 C 2.226562 -5.472656 2.285156 -5.503906 2.359375 -5.484375 L 3.21875 -5.3125 C 3.3125 -5.289062 3.335938 -5.238281 3.296875 -5.15625 L 1.5 0.171875 C 1.457031 0.253906 1.394531 0.289062 1.3125 0.28125 Z M 0.453125 0.09375 "/></g></g></g><g fill="#00c2cb" fill-opacity="0.4"><g transform="translate(149.804641, 98.491546)"><g><path d="M 5.703125 -5.109375 C 5.796875 -5.097656 5.832031 -5.046875 5.8125 -4.953125 L 5.609375 -4.25 C 5.585938 -4.15625 5.53125 -4.113281 5.4375 -4.125 L 4.046875 -4.328125 C 4.015625 -4.328125 3.992188 -4.3125 3.984375 -4.28125 L 2.765625 0.25 C 2.742188 0.34375 2.6875 0.378906 2.59375 0.359375 L 1.75 0.25 C 1.644531 0.226562 1.609375 0.175781 1.640625 0.09375 L 2.859375 -4.4375 C 2.867188 -4.46875 2.851562 -4.488281 2.8125 -4.5 L 1.46875 -4.6875 C 1.425781 -4.6875 1.394531 -4.703125 1.375 -4.734375 C 1.363281 -4.765625 1.359375 -4.800781 1.359375 -4.84375 L 1.5625 -5.546875 C 1.582031 -5.640625 1.632812 -5.679688 1.71875 -5.671875 Z M 5.703125 -5.109375 "/></g></g></g><g fill="#00c2cb" fill-opacity="0.4"><g transform="translate(154.814579, 99.197798)"><g><path d="M 3.984375 0.171875 C 3.910156 0.160156 3.867188 0.113281 3.859375 0.03125 L 3.75 -0.734375 C 3.75 -0.765625 3.738281 -0.78125 3.71875 -0.78125 L 1.734375 -0.859375 C 1.703125 -0.867188 1.679688 -0.859375 1.671875 -0.828125 L 1.3125 -0.0625 C 1.269531 0.0078125 1.210938 0.046875 1.140625 0.046875 L 0.1875 0.015625 C 0.113281 0.00390625 0.078125 -0.03125 0.078125 -0.09375 L 0.09375 -0.15625 L 2.765625 -5.640625 C 2.804688 -5.710938 2.863281 -5.75 2.9375 -5.75 L 4.125 -5.703125 C 4.207031 -5.691406 4.253906 -5.648438 4.265625 -5.578125 L 5.0625 0.0625 L 5.0625 0.09375 C 5.0625 0.132812 5.046875 0.160156 5.015625 0.171875 C 4.992188 0.191406 4.96875 0.203125 4.9375 0.203125 Z M 2.109375 -1.828125 C 2.109375 -1.785156 2.117188 -1.757812 2.140625 -1.75 L 3.59375 -1.703125 C 3.625 -1.691406 3.640625 -1.707031 3.640625 -1.75 L 3.328125 -4.34375 C 3.316406 -4.363281 3.304688 -4.375 3.296875 -4.375 C 3.285156 -4.375 3.273438 -4.363281 3.265625 -4.34375 Z M 2.109375 -1.828125 "/></g></g></g><g fill="#00c2cb" fill-opacity="0.4"><g transform="translate(160.568294, 99.406306)"><g><path d="M 0.46875 -0.03125 C 0.375 -0.0195312 0.335938 -0.0625 0.359375 -0.15625 L 0.71875 -5.765625 C 0.738281 -5.859375 0.789062 -5.90625 0.875 -5.90625 L 1.75 -5.953125 C 1.84375 -5.960938 1.878906 -5.921875 1.859375 -5.828125 L 1.546875 -1.15625 C 1.546875 -1.125 1.5625 -1.109375 1.59375 -1.109375 L 4.203125 -1.25 C 4.285156 -1.25 4.328125 -1.203125 4.328125 -1.109375 L 4.28125 -0.375 C 4.269531 -0.28125 4.222656 -0.226562 4.140625 -0.21875 Z M 0.46875 -0.03125 "/></g></g></g><g fill="#03989e" fill-opacity="1"><g transform="translate(135.225846, 93.362016)"><g><path d="M 0.4375 0.1875 C 0.34375 0.144531 0.328125 0.0859375 0.390625 0.015625 L 3.234375 -4.84375 C 3.273438 -4.914062 3.335938 -4.9375 3.421875 -4.90625 L 5.25 -4.109375 C 5.757812 -3.890625 6.113281 -3.582031 6.3125 -3.1875 C 6.507812 -2.800781 6.519531 -2.398438 6.34375 -1.984375 C 6.3125 -1.929688 6.265625 -1.859375 6.203125 -1.765625 L 5.015625 0.234375 C 4.847656 0.546875 4.617188 0.785156 4.328125 0.953125 C 4.035156 1.117188 3.707031 1.203125 3.34375 1.203125 C 2.988281 1.210938 2.628906 1.140625 2.265625 0.984375 Z M 1.90625 -0.328125 C 1.894531 -0.304688 1.898438 -0.289062 1.921875 -0.28125 L 2.8125 0.109375 C 3.039062 0.203125 3.269531 0.207031 3.5 0.125 C 3.726562 0.0390625 3.914062 -0.128906 4.0625 -0.390625 L 5.0625 -2.046875 C 5.082031 -2.085938 5.101562 -2.140625 5.125 -2.203125 C 5.226562 -2.429688 5.242188 -2.632812 5.171875 -2.8125 C 5.109375 -2.988281 4.972656 -3.117188 4.765625 -3.203125 L 3.875 -3.59375 C 3.832031 -3.613281 3.804688 -3.613281 3.796875 -3.59375 Z M 1.90625 -0.328125 "/></g></g></g><g fill="#03989e" fill-opacity="1"><g transform="translate(140.04649, 95.389755)"><g><path d="M 0.4375 0.15625 C 0.351562 0.125 0.335938 0.0703125 0.390625 0 L 2.875 -5.046875 C 2.925781 -5.117188 2.992188 -5.144531 3.078125 -5.125 L 3.890625 -4.828125 C 3.984375 -4.796875 4.003906 -4.742188 3.953125 -4.671875 L 1.453125 0.375 C 1.410156 0.445312 1.347656 0.472656 1.265625 0.453125 Z M 0.4375 0.15625 "/></g></g></g><g fill="#03989e" fill-opacity="1"><g transform="translate(142.249907, 96.213036)"><g><path d="M 2.21875 0.6875 C 1.664062 0.53125 1.265625 0.253906 1.015625 -0.140625 C 0.773438 -0.535156 0.726562 -0.988281 0.875 -1.5 C 0.914062 -1.632812 0.953125 -1.734375 0.984375 -1.796875 L 1.703125 -3.546875 C 1.859375 -3.921875 2.082031 -4.226562 2.375 -4.46875 C 2.675781 -4.71875 3.007812 -4.875 3.375 -4.9375 C 3.738281 -5.007812 4.128906 -4.988281 4.546875 -4.875 C 4.898438 -4.769531 5.195312 -4.613281 5.4375 -4.40625 C 5.675781 -4.195312 5.832031 -3.953125 5.90625 -3.671875 C 5.988281 -3.390625 5.988281 -3.09375 5.90625 -2.78125 C 5.882812 -2.726562 5.859375 -2.648438 5.828125 -2.546875 L 5.8125 -2.53125 C 5.78125 -2.445312 5.722656 -2.421875 5.640625 -2.453125 L 4.796875 -2.6875 C 4.753906 -2.695312 4.722656 -2.710938 4.703125 -2.734375 C 4.691406 -2.753906 4.6875 -2.769531 4.6875 -2.78125 L 4.71875 -2.84375 C 4.726562 -2.863281 4.738281 -2.898438 4.75 -2.953125 C 4.8125 -3.171875 4.789062 -3.375 4.6875 -3.5625 C 4.582031 -3.75 4.40625 -3.875 4.15625 -3.9375 C 3.875 -4.019531 3.609375 -4 3.359375 -3.875 C 3.117188 -3.75 2.941406 -3.546875 2.828125 -3.265625 L 2.078125 -1.4375 C 2.054688 -1.40625 2.035156 -1.363281 2.015625 -1.3125 C 1.953125 -1.0625 1.976562 -0.835938 2.09375 -0.640625 C 2.207031 -0.453125 2.390625 -0.320312 2.640625 -0.25 C 2.921875 -0.175781 3.171875 -0.1875 3.390625 -0.28125 C 3.609375 -0.375 3.769531 -0.546875 3.875 -0.796875 L 4.03125 -1.15625 C 4.039062 -1.1875 4.035156 -1.203125 4.015625 -1.203125 L 3.171875 -1.4375 C 3.078125 -1.46875 3.050781 -1.519531 3.09375 -1.59375 L 3.359375 -2.25 C 3.390625 -2.320312 3.445312 -2.347656 3.53125 -2.328125 L 5.375 -1.8125 C 5.46875 -1.789062 5.5 -1.738281 5.46875 -1.65625 L 5.046875 -0.65625 C 4.796875 -0.0625 4.414062 0.351562 3.90625 0.59375 C 3.394531 0.832031 2.832031 0.863281 2.21875 0.6875 Z M 2.21875 0.6875 "/></g></g></g><g fill="#03989e" fill-opacity="1"><g transform="translate(147.21729, 97.547712)"><g><path d="M 0.453125 0.09375 C 0.367188 0.0703125 0.347656 0.0195312 0.390625 -0.0625 L 2.1875 -5.390625 C 2.226562 -5.472656 2.285156 -5.503906 2.359375 -5.484375 L 3.21875 -5.3125 C 3.3125 -5.289062 3.335938 -5.238281 3.296875 -5.15625 L 1.5 0.171875 C 1.457031 0.253906 1.394531 0.289062 1.3125 0.28125 Z M 0.453125 0.09375 "/></g></g></g><g fill="#03989e" fill-opacity="1"><g transform="translate(149.506561, 98.061694)"><g><path d="M 5.703125 -5.109375 C 5.796875 -5.097656 5.832031 -5.046875 5.8125 -4.953125 L 5.609375 -4.25 C 5.585938 -4.15625 5.53125 -4.113281 5.4375 -4.125 L 4.046875 -4.328125 C 4.015625 -4.328125 3.992188 -4.3125 3.984375 -4.28125 L 2.765625 0.25 C 2.742188 0.34375 2.6875 0.378906 2.59375 0.359375 L 1.75 0.25 C 1.644531 0.226562 1.609375 0.175781 1.640625 0.09375 L 2.859375 -4.4375 C 2.867188 -4.46875 2.851562 -4.488281 2.8125 -4.5 L 1.46875 -4.6875 C 1.425781 -4.6875 1.394531 -4.703125 1.375 -4.734375 C 1.363281 -4.765625 1.359375 -4.800781 1.359375 -4.84375 L 1.5625 -5.546875 C 1.582031 -5.640625 1.632812 -5.679688 1.71875 -5.671875 Z M 5.703125 -5.109375 "/></g></g></g><g fill="#03989e" fill-opacity="1"><g transform="translate(154.516499, 98.767946)"><g><path d="M 3.984375 0.171875 C 3.910156 0.160156 3.867188 0.113281 3.859375 0.03125 L 3.75 -0.734375 C 3.75 -0.765625 3.738281 -0.78125 3.71875 -0.78125 L 1.734375 -0.859375 C 1.703125 -0.867188 1.679688 -0.859375 1.671875 -0.828125 L 1.3125 -0.0625 C 1.269531 0.0078125 1.210938 0.046875 1.140625 0.046875 L 0.1875 0.015625 C 0.113281 0.00390625 0.078125 -0.03125 0.078125 -0.09375 L 0.09375 -0.15625 L 2.765625 -5.640625 C 2.804688 -5.710938 2.863281 -5.75 2.9375 -5.75 L 4.125 -5.703125 C 4.207031 -5.691406 4.253906 -5.648438 4.265625 -5.578125 L 5.0625 0.0625 L 5.0625 0.09375 C 5.0625 0.132812 5.046875 0.160156 5.015625 0.171875 C 4.992188 0.191406 4.96875 0.203125 4.9375 0.203125 Z M 2.109375 -1.828125 C 2.109375 -1.785156 2.117188 -1.757812 2.140625 -1.75 L 3.59375 -1.703125 C 3.625 -1.691406 3.640625 -1.707031 3.640625 -1.75 L 3.328125 -4.34375 C 3.316406 -4.363281 3.304688 -4.375 3.296875 -4.375 C 3.285156 -4.375 3.273438 -4.363281 3.265625 -4.34375 Z M 2.109375 -1.828125 "/></g></g></g><g fill="#03989e" fill-opacity="1"><g transform="translate(160.2702, 98.976457)"><g><path d="M 0.46875 -0.03125 C 0.375 -0.0195312 0.335938 -0.0625 0.359375 -0.15625 L 0.71875 -5.765625 C 0.738281 -5.859375 0.789062 -5.90625 0.875 -5.90625 L 1.75 -5.953125 C 1.84375 -5.960938 1.878906 -5.921875 1.859375 -5.828125 L 1.546875 -1.15625 C 1.546875 -1.125 1.5625 -1.109375 1.59375 -1.109375 L 4.203125 -1.25 C 4.285156 -1.25 4.328125 -1.203125 4.328125 -1.109375 L 4.28125 -0.375 C 4.269531 -0.28125 4.222656 -0.226562 4.140625 -0.21875 Z M 0.46875 -0.03125 "/></g></g></g></svg>